<mxfile host="Electron" agent="Mozilla/5.0 (Windows NT 10.0; Win64; x64) AppleWebKit/537.36 (KHTML, like Gecko) draw.io/24.7.17 Chrome/128.0.6613.36 Electron/32.0.1 Safari/537.36" version="24.7.17">
  <diagram name="Page-1" id="L9-AMFKxeb9hTkN64Ojg">
    <mxGraphModel dx="1098" dy="868" grid="1" gridSize="10" guides="1" tooltips="1" connect="1" arrows="1" fold="1" page="1" pageScale="1" pageWidth="827" pageHeight="1169" math="0" shadow="0">
      <root>
        <mxCell id="0" />
        <mxCell id="1" parent="0" />
        <mxCell id="QG_l4MKezRPwtD6jx4Xo-1" value="User" style="rounded=0;whiteSpace=wrap;html=1;" parent="1" vertex="1">
          <mxGeometry x="529" y="340" width="60" height="30" as="geometry" />
        </mxCell>
        <mxCell id="QG_l4MKezRPwtD6jx4Xo-3" value="username" style="ellipse;whiteSpace=wrap;html=1;" parent="1" vertex="1">
          <mxGeometry x="644" y="310" width="90" height="30" as="geometry" />
        </mxCell>
        <mxCell id="QG_l4MKezRPwtD6jx4Xo-6" value="email" style="ellipse;whiteSpace=wrap;html=1;" parent="1" vertex="1">
          <mxGeometry x="644" y="340" width="90" height="30" as="geometry" />
        </mxCell>
        <mxCell id="QG_l4MKezRPwtD6jx4Xo-7" value="userId" style="ellipse;whiteSpace=wrap;html=1;" parent="1" vertex="1">
          <mxGeometry x="644" y="280" width="90" height="30" as="geometry" />
        </mxCell>
        <mxCell id="QG_l4MKezRPwtD6jx4Xo-9" value="" style="endArrow=none;html=1;rounded=0;exitX=1;exitY=0.5;exitDx=0;exitDy=0;entryX=0;entryY=0.5;entryDx=0;entryDy=0;" parent="1" source="QG_l4MKezRPwtD6jx4Xo-1" target="QG_l4MKezRPwtD6jx4Xo-3" edge="1">
          <mxGeometry width="50" height="50" relative="1" as="geometry">
            <mxPoint x="429" y="430" as="sourcePoint" />
            <mxPoint x="479" y="380" as="targetPoint" />
          </mxGeometry>
        </mxCell>
        <mxCell id="QG_l4MKezRPwtD6jx4Xo-11" value="" style="endArrow=none;html=1;rounded=0;exitX=1;exitY=0.5;exitDx=0;exitDy=0;entryX=0;entryY=0.5;entryDx=0;entryDy=0;" parent="1" source="QG_l4MKezRPwtD6jx4Xo-1" target="QG_l4MKezRPwtD6jx4Xo-6" edge="1">
          <mxGeometry width="50" height="50" relative="1" as="geometry">
            <mxPoint x="619" y="415" as="sourcePoint" />
            <mxPoint x="619" y="400" as="targetPoint" />
          </mxGeometry>
        </mxCell>
        <mxCell id="QG_l4MKezRPwtD6jx4Xo-12" value="" style="endArrow=none;html=1;rounded=0;entryX=0;entryY=0.5;entryDx=0;entryDy=0;exitX=1;exitY=0.5;exitDx=0;exitDy=0;" parent="1" source="QG_l4MKezRPwtD6jx4Xo-1" target="QG_l4MKezRPwtD6jx4Xo-7" edge="1">
          <mxGeometry width="50" height="50" relative="1" as="geometry">
            <mxPoint x="629" y="425" as="sourcePoint" />
            <mxPoint x="679" y="405" as="targetPoint" />
          </mxGeometry>
        </mxCell>
        <mxCell id="QG_l4MKezRPwtD6jx4Xo-14" value="Creates" style="rhombus;whiteSpace=wrap;html=1;" parent="1" vertex="1">
          <mxGeometry x="529" y="490" width="60" height="60" as="geometry" />
        </mxCell>
        <mxCell id="QG_l4MKezRPwtD6jx4Xo-15" value="likes" style="ellipse;whiteSpace=wrap;html=1;" parent="1" vertex="1">
          <mxGeometry x="614" y="575" width="90" height="30" as="geometry" />
        </mxCell>
        <mxCell id="QG_l4MKezRPwtD6jx4Xo-16" value="favorites" style="ellipse;whiteSpace=wrap;html=1;" parent="1" vertex="1">
          <mxGeometry x="614" y="605" width="90" height="30" as="geometry" />
        </mxCell>
        <mxCell id="QG_l4MKezRPwtD6jx4Xo-17" value="postDate" style="ellipse;whiteSpace=wrap;html=1;" parent="1" vertex="1">
          <mxGeometry x="579" y="670" width="90" height="30" as="geometry" />
        </mxCell>
        <mxCell id="QG_l4MKezRPwtD6jx4Xo-18" value="content" style="ellipse;whiteSpace=wrap;html=1;" parent="1" vertex="1">
          <mxGeometry x="534" y="700" width="90" height="30" as="geometry" />
        </mxCell>
        <mxCell id="QG_l4MKezRPwtD6jx4Xo-19" value="" style="endArrow=none;html=1;rounded=0;entryX=1;entryY=0.5;entryDx=0;entryDy=0;exitX=0;exitY=0.5;exitDx=0;exitDy=0;" parent="1" source="QG_l4MKezRPwtD6jx4Xo-15" edge="1">
          <mxGeometry width="50" height="50" relative="1" as="geometry">
            <mxPoint x="639" y="430" as="sourcePoint" />
            <mxPoint x="589" y="605" as="targetPoint" />
          </mxGeometry>
        </mxCell>
        <mxCell id="QG_l4MKezRPwtD6jx4Xo-20" value="" style="endArrow=none;html=1;rounded=0;entryX=1;entryY=0.5;entryDx=0;entryDy=0;exitX=0;exitY=0.5;exitDx=0;exitDy=0;" parent="1" source="QG_l4MKezRPwtD6jx4Xo-16" edge="1">
          <mxGeometry width="50" height="50" relative="1" as="geometry">
            <mxPoint x="649" y="440" as="sourcePoint" />
            <mxPoint x="589" y="605" as="targetPoint" />
          </mxGeometry>
        </mxCell>
        <mxCell id="QG_l4MKezRPwtD6jx4Xo-21" value="" style="endArrow=none;html=1;rounded=0;entryX=0.5;entryY=1;entryDx=0;entryDy=0;exitX=0;exitY=0;exitDx=0;exitDy=0;" parent="1" source="QG_l4MKezRPwtD6jx4Xo-17" edge="1">
          <mxGeometry width="50" height="50" relative="1" as="geometry">
            <mxPoint x="659" y="450" as="sourcePoint" />
            <mxPoint x="559" y="620" as="targetPoint" />
          </mxGeometry>
        </mxCell>
        <mxCell id="QG_l4MKezRPwtD6jx4Xo-22" value="" style="endArrow=none;html=1;rounded=0;exitX=0.5;exitY=0;exitDx=0;exitDy=0;entryX=0.5;entryY=1;entryDx=0;entryDy=0;" parent="1" source="QG_l4MKezRPwtD6jx4Xo-18" edge="1">
          <mxGeometry width="50" height="50" relative="1" as="geometry">
            <mxPoint x="669" y="460" as="sourcePoint" />
            <mxPoint x="559" y="620" as="targetPoint" />
          </mxGeometry>
        </mxCell>
        <mxCell id="QG_l4MKezRPwtD6jx4Xo-32" value="Reposts" style="rhombus;whiteSpace=wrap;html=1;" parent="1" vertex="1">
          <mxGeometry x="469" y="490" width="60" height="60" as="geometry" />
        </mxCell>
        <mxCell id="QG_l4MKezRPwtD6jx4Xo-38" value="has followed" style="shape=associativeEntity;whiteSpace=wrap;html=1;align=center;" parent="1" vertex="1">
          <mxGeometry x="564" y="210" width="100" height="40" as="geometry" />
        </mxCell>
        <mxCell id="QG_l4MKezRPwtD6jx4Xo-41" value="Mutuals&lt;div&gt;(friendslist)&lt;/div&gt;" style="rounded=0;whiteSpace=wrap;html=1;" parent="1" vertex="1">
          <mxGeometry x="564" y="145" width="100" height="40" as="geometry" />
        </mxCell>
        <mxCell id="QG_l4MKezRPwtD6jx4Xo-42" value="followrerId" style="ellipse;whiteSpace=wrap;html=1;" parent="1" vertex="1">
          <mxGeometry x="679" y="165" width="90" height="30" as="geometry" />
        </mxCell>
        <mxCell id="QG_l4MKezRPwtD6jx4Xo-43" value="followDate" style="ellipse;whiteSpace=wrap;html=1;" parent="1" vertex="1">
          <mxGeometry x="679" y="135" width="90" height="30" as="geometry" />
        </mxCell>
        <mxCell id="QG_l4MKezRPwtD6jx4Xo-44" value="" style="endArrow=none;html=1;rounded=0;entryX=0;entryY=0.5;entryDx=0;entryDy=0;exitX=1;exitY=0.5;exitDx=0;exitDy=0;" parent="1" source="QG_l4MKezRPwtD6jx4Xo-41" target="QG_l4MKezRPwtD6jx4Xo-43" edge="1">
          <mxGeometry width="50" height="50" relative="1" as="geometry">
            <mxPoint x="579" y="405" as="sourcePoint" />
            <mxPoint x="659" y="360" as="targetPoint" />
          </mxGeometry>
        </mxCell>
        <mxCell id="QG_l4MKezRPwtD6jx4Xo-45" value="" style="endArrow=none;html=1;rounded=0;entryX=1;entryY=0.5;entryDx=0;entryDy=0;exitX=0;exitY=0.5;exitDx=0;exitDy=0;" parent="1" source="QG_l4MKezRPwtD6jx4Xo-42" target="QG_l4MKezRPwtD6jx4Xo-41" edge="1">
          <mxGeometry width="50" height="50" relative="1" as="geometry">
            <mxPoint x="589" y="415" as="sourcePoint" />
            <mxPoint x="669" y="370" as="targetPoint" />
          </mxGeometry>
        </mxCell>
        <mxCell id="QG_l4MKezRPwtD6jx4Xo-46" value="" style="endArrow=none;html=1;rounded=0;entryX=0.5;entryY=1;entryDx=0;entryDy=0;exitX=0.5;exitY=0;exitDx=0;exitDy=0;" parent="1" source="QG_l4MKezRPwtD6jx4Xo-1" target="QG_l4MKezRPwtD6jx4Xo-38" edge="1">
          <mxGeometry width="50" height="50" relative="1" as="geometry">
            <mxPoint x="599" y="365" as="sourcePoint" />
            <mxPoint x="679" y="320" as="targetPoint" />
            <Array as="points">
              <mxPoint x="614" y="280" />
            </Array>
          </mxGeometry>
        </mxCell>
        <mxCell id="QG_l4MKezRPwtD6jx4Xo-47" value="" style="endArrow=none;html=1;rounded=0;entryX=0.5;entryY=1;entryDx=0;entryDy=0;exitX=0.5;exitY=0;exitDx=0;exitDy=0;" parent="1" source="QG_l4MKezRPwtD6jx4Xo-38" target="QG_l4MKezRPwtD6jx4Xo-41" edge="1">
          <mxGeometry width="50" height="50" relative="1" as="geometry">
            <mxPoint x="589" y="385" as="sourcePoint" />
            <mxPoint x="669" y="340" as="targetPoint" />
          </mxGeometry>
        </mxCell>
        <mxCell id="QG_l4MKezRPwtD6jx4Xo-58" value="postId" style="ellipse;whiteSpace=wrap;html=1;" parent="1" vertex="1">
          <mxGeometry x="461.5" y="640" width="90" height="30" as="geometry" />
        </mxCell>
        <mxCell id="QG_l4MKezRPwtD6jx4Xo-59" value="title" style="ellipse;whiteSpace=wrap;html=1;" parent="1" vertex="1">
          <mxGeometry x="477.5" y="670" width="90" height="30" as="geometry" />
        </mxCell>
        <mxCell id="QG_l4MKezRPwtD6jx4Xo-60" value="" style="endArrow=none;html=1;rounded=0;exitX=1;exitY=0;exitDx=0;exitDy=0;entryX=0.5;entryY=1;entryDx=0;entryDy=0;" parent="1" source="QG_l4MKezRPwtD6jx4Xo-59" edge="1">
          <mxGeometry width="50" height="50" relative="1" as="geometry">
            <mxPoint x="679" y="720" as="sourcePoint" />
            <mxPoint x="559" y="620" as="targetPoint" />
          </mxGeometry>
        </mxCell>
        <mxCell id="QG_l4MKezRPwtD6jx4Xo-61" value="" style="endArrow=none;html=1;rounded=0;exitX=1;exitY=0;exitDx=0;exitDy=0;entryX=0.5;entryY=1;entryDx=0;entryDy=0;" parent="1" source="QG_l4MKezRPwtD6jx4Xo-58" edge="1">
          <mxGeometry width="50" height="50" relative="1" as="geometry">
            <mxPoint x="689" y="730" as="sourcePoint" />
            <mxPoint x="559" y="620" as="targetPoint" />
          </mxGeometry>
        </mxCell>
        <mxCell id="QG_l4MKezRPwtD6jx4Xo-62" value="Likes" style="rhombus;whiteSpace=wrap;html=1;" parent="1" vertex="1">
          <mxGeometry x="589" y="490" width="60" height="60" as="geometry" />
        </mxCell>
        <mxCell id="QG_l4MKezRPwtD6jx4Xo-63" value="Writes" style="rhombus;whiteSpace=wrap;html=1;" parent="1" vertex="1">
          <mxGeometry x="480" y="200" width="60" height="60" as="geometry" />
        </mxCell>
        <mxCell id="QG_l4MKezRPwtD6jx4Xo-64" value="" style="endArrow=none;html=1;rounded=0;entryX=0.5;entryY=0;entryDx=0;entryDy=0;exitX=0.5;exitY=1;exitDx=0;exitDy=0;" parent="1" source="QG_l4MKezRPwtD6jx4Xo-1" target="QG_l4MKezRPwtD6jx4Xo-32" edge="1">
          <mxGeometry width="50" height="50" relative="1" as="geometry">
            <mxPoint x="679" y="565" as="sourcePoint" />
            <mxPoint x="599" y="655" as="targetPoint" />
            <Array as="points">
              <mxPoint x="499" y="440" />
            </Array>
          </mxGeometry>
        </mxCell>
        <mxCell id="QG_l4MKezRPwtD6jx4Xo-66" value="" style="endArrow=none;html=1;rounded=0;entryX=0.5;entryY=1;entryDx=0;entryDy=0;exitX=0.5;exitY=0;exitDx=0;exitDy=0;" parent="1" source="QG_l4MKezRPwtD6jx4Xo-62" target="QG_l4MKezRPwtD6jx4Xo-1" edge="1">
          <mxGeometry width="50" height="50" relative="1" as="geometry">
            <mxPoint x="579" y="390" as="sourcePoint" />
            <mxPoint x="489" y="490" as="targetPoint" />
            <Array as="points">
              <mxPoint x="619" y="440" />
            </Array>
          </mxGeometry>
        </mxCell>
        <mxCell id="QG_l4MKezRPwtD6jx4Xo-68" value="" style="endArrow=none;html=1;rounded=0;entryX=0.5;entryY=1;entryDx=0;entryDy=0;exitX=0.5;exitY=0;exitDx=0;exitDy=0;" parent="1" target="QG_l4MKezRPwtD6jx4Xo-32" edge="1">
          <mxGeometry width="50" height="50" relative="1" as="geometry">
            <mxPoint x="559" y="590" as="sourcePoint" />
            <mxPoint x="599" y="735" as="targetPoint" />
            <Array as="points">
              <mxPoint x="499" y="570" />
            </Array>
          </mxGeometry>
        </mxCell>
        <mxCell id="QG_l4MKezRPwtD6jx4Xo-70" value="" style="endArrow=none;html=1;rounded=0;entryX=0.5;entryY=1;entryDx=0;entryDy=0;exitX=0.5;exitY=0;exitDx=0;exitDy=0;" parent="1" target="QG_l4MKezRPwtD6jx4Xo-62" edge="1">
          <mxGeometry width="50" height="50" relative="1" as="geometry">
            <mxPoint x="559" y="590" as="sourcePoint" />
            <mxPoint x="619" y="755" as="targetPoint" />
            <Array as="points">
              <mxPoint x="619" y="570" />
            </Array>
          </mxGeometry>
        </mxCell>
        <mxCell id="QG_l4MKezRPwtD6jx4Xo-73" value="noteId" style="ellipse;whiteSpace=wrap;html=1;" parent="1" vertex="1">
          <mxGeometry x="88" y="185" width="90" height="30" as="geometry" />
        </mxCell>
        <mxCell id="QG_l4MKezRPwtD6jx4Xo-74" value="content" style="ellipse;whiteSpace=wrap;html=1;" parent="1" vertex="1">
          <mxGeometry x="118" y="150" width="90" height="30" as="geometry" />
        </mxCell>
        <mxCell id="QG_l4MKezRPwtD6jx4Xo-75" value="commentDate" style="ellipse;whiteSpace=wrap;html=1;" parent="1" vertex="1">
          <mxGeometry x="218" y="150" width="90" height="30" as="geometry" />
        </mxCell>
        <mxCell id="QG_l4MKezRPwtD6jx4Xo-77" value="" style="endArrow=none;html=1;rounded=0;exitX=1;exitY=0.5;exitDx=0;exitDy=0;entryX=0.5;entryY=0;entryDx=0;entryDy=0;" parent="1" source="QG_l4MKezRPwtD6jx4Xo-73" target="QG_l4MKezRPwtD6jx4Xo-89" edge="1">
          <mxGeometry width="50" height="50" relative="1" as="geometry">
            <mxPoint x="450.81980515339455" y="140.60660171779818" as="sourcePoint" />
            <mxPoint x="504" y="165" as="targetPoint" />
          </mxGeometry>
        </mxCell>
        <mxCell id="QG_l4MKezRPwtD6jx4Xo-78" value="" style="endArrow=none;html=1;rounded=0;exitX=0.5;exitY=0;exitDx=0;exitDy=0;entryX=0;entryY=1;entryDx=0;entryDy=0;" parent="1" source="QG_l4MKezRPwtD6jx4Xo-89" target="QG_l4MKezRPwtD6jx4Xo-75" edge="1">
          <mxGeometry width="50" height="50" relative="1" as="geometry">
            <mxPoint x="504" y="165" as="sourcePoint" />
            <mxPoint x="557.1801948466054" y="140.60660171779818" as="targetPoint" />
          </mxGeometry>
        </mxCell>
        <mxCell id="QG_l4MKezRPwtD6jx4Xo-79" value="" style="endArrow=none;html=1;rounded=0;exitX=1;exitY=1;exitDx=0;exitDy=0;entryX=0.5;entryY=0;entryDx=0;entryDy=0;" parent="1" source="QG_l4MKezRPwtD6jx4Xo-74" target="QG_l4MKezRPwtD6jx4Xo-89" edge="1">
          <mxGeometry width="50" height="50" relative="1" as="geometry">
            <mxPoint x="491" y="151" as="sourcePoint" />
            <mxPoint x="504" y="165" as="targetPoint" />
          </mxGeometry>
        </mxCell>
        <mxCell id="QG_l4MKezRPwtD6jx4Xo-80" value="Contains" style="shape=associativeEntity;whiteSpace=wrap;html=1;align=center;" parent="1" vertex="1">
          <mxGeometry x="274" y="590" width="90" height="30" as="geometry" />
        </mxCell>
        <mxCell id="QG_l4MKezRPwtD6jx4Xo-81" value="Comments" style="shape=associativeEntity;whiteSpace=wrap;html=1;align=center;" parent="1" vertex="1">
          <mxGeometry x="359" y="270" width="90" height="30" as="geometry" />
        </mxCell>
        <mxCell id="QG_l4MKezRPwtD6jx4Xo-82" value="" style="endArrow=none;html=1;rounded=0;entryX=0;entryY=0.5;entryDx=0;entryDy=0;exitX=1;exitY=0.5;exitDx=0;exitDy=0;" parent="1" edge="1">
          <mxGeometry width="50" height="50" relative="1" as="geometry">
            <mxPoint x="449" y="283" as="sourcePoint" />
            <mxPoint x="529" y="353" as="targetPoint" />
            <Array as="points">
              <mxPoint x="479" y="283" />
            </Array>
          </mxGeometry>
        </mxCell>
        <mxCell id="QG_l4MKezRPwtD6jx4Xo-84" value="likes" style="ellipse;whiteSpace=wrap;html=1;" parent="1" vertex="1">
          <mxGeometry x="168" y="120" width="90" height="30" as="geometry" />
        </mxCell>
        <mxCell id="QG_l4MKezRPwtD6jx4Xo-85" value="" style="endArrow=none;html=1;rounded=0;entryX=0.5;entryY=1;entryDx=0;entryDy=0;exitX=0.5;exitY=0;exitDx=0;exitDy=0;" parent="1" source="QG_l4MKezRPwtD6jx4Xo-89" target="QG_l4MKezRPwtD6jx4Xo-84" edge="1">
          <mxGeometry width="50" height="50" relative="1" as="geometry">
            <mxPoint x="504" y="165" as="sourcePoint" />
            <mxPoint x="552" y="161" as="targetPoint" />
          </mxGeometry>
        </mxCell>
        <mxCell id="QG_l4MKezRPwtD6jx4Xo-89" value="Note&lt;div&gt;(Comment)&lt;/div&gt;" style="shape=ext;margin=3;double=1;whiteSpace=wrap;html=1;align=center;" parent="1" vertex="1">
          <mxGeometry x="163" y="220" width="100" height="50" as="geometry" />
        </mxCell>
        <mxCell id="QG_l4MKezRPwtD6jx4Xo-90" value="parentId" style="ellipse;whiteSpace=wrap;html=1;" parent="1" vertex="1">
          <mxGeometry x="594" y="640" width="90" height="30" as="geometry" />
        </mxCell>
        <mxCell id="QG_l4MKezRPwtD6jx4Xo-91" value="" style="endArrow=none;html=1;rounded=0;entryX=0.5;entryY=1;entryDx=0;entryDy=0;exitX=0;exitY=0;exitDx=0;exitDy=0;" parent="1" source="QG_l4MKezRPwtD6jx4Xo-90" edge="1">
          <mxGeometry width="50" height="50" relative="1" as="geometry">
            <mxPoint x="612" y="739" as="sourcePoint" />
            <mxPoint x="559" y="620" as="targetPoint" />
          </mxGeometry>
        </mxCell>
        <mxCell id="QG_l4MKezRPwtD6jx4Xo-94" value="" style="endArrow=none;html=1;rounded=0;exitX=0;exitY=0.5;exitDx=0;exitDy=0;entryX=1;entryY=0.5;entryDx=0;entryDy=0;" parent="1" source="QG_l4MKezRPwtD6jx4Xo-81" target="QG_l4MKezRPwtD6jx4Xo-89" edge="1">
          <mxGeometry width="50" height="50" relative="1" as="geometry">
            <mxPoint x="491" y="111" as="sourcePoint" />
            <mxPoint x="369" y="225" as="targetPoint" />
            <Array as="points">
              <mxPoint x="310" y="285" />
              <mxPoint x="310" y="245" />
            </Array>
          </mxGeometry>
        </mxCell>
        <mxCell id="QiPL9GrgfTsRM4h--cfD-1" value="postId" style="ellipse;whiteSpace=wrap;html=1;" parent="1" vertex="1">
          <mxGeometry x="248" y="185" width="90" height="30" as="geometry" />
        </mxCell>
        <mxCell id="QiPL9GrgfTsRM4h--cfD-2" value="" style="endArrow=none;html=1;rounded=0;exitX=0;exitY=0.5;exitDx=0;exitDy=0;entryX=0.5;entryY=0;entryDx=0;entryDy=0;" parent="1" source="QiPL9GrgfTsRM4h--cfD-1" target="QG_l4MKezRPwtD6jx4Xo-89" edge="1">
          <mxGeometry width="50" height="50" relative="1" as="geometry">
            <mxPoint x="479" y="135" as="sourcePoint" />
            <mxPoint x="514" y="150" as="targetPoint" />
          </mxGeometry>
        </mxCell>
        <mxCell id="QiPL9GrgfTsRM4h--cfD-3" value="Contains" style="shape=associativeEntity;whiteSpace=wrap;html=1;align=center;" parent="1" vertex="1">
          <mxGeometry x="274" y="630" width="90" height="30" as="geometry" />
        </mxCell>
        <mxCell id="QiPL9GrgfTsRM4h--cfD-4" value="Blog" style="shape=ext;margin=3;double=1;whiteSpace=wrap;html=1;align=center;" parent="1" vertex="1">
          <mxGeometry x="183" y="340" width="60" height="30" as="geometry" />
        </mxCell>
        <mxCell id="QiPL9GrgfTsRM4h--cfD-5" value="Message" style="shape=ext;margin=3;double=1;whiteSpace=wrap;html=1;align=center;" parent="1" vertex="1">
          <mxGeometry x="465" y="150" width="90" height="30" as="geometry" />
        </mxCell>
        <mxCell id="QiPL9GrgfTsRM4h--cfD-6" value="" style="endArrow=none;html=1;rounded=0;exitX=0.5;exitY=0;exitDx=0;exitDy=0;" parent="1" source="QiPL9GrgfTsRM4h--cfD-36" edge="1">
          <mxGeometry width="50" height="50" relative="1" as="geometry">
            <mxPoint x="373" y="288" as="sourcePoint" />
            <mxPoint x="559" y="370" as="targetPoint" />
          </mxGeometry>
        </mxCell>
        <mxCell id="QiPL9GrgfTsRM4h--cfD-7" value="" style="endArrow=none;html=1;rounded=0;exitX=0.5;exitY=1;exitDx=0;exitDy=0;entryX=0.5;entryY=0;entryDx=0;entryDy=0;" parent="1" source="QiPL9GrgfTsRM4h--cfD-50" edge="1">
          <mxGeometry width="50" height="50" relative="1" as="geometry">
            <mxPoint x="569" y="540" as="sourcePoint" />
            <mxPoint x="559" y="590" as="targetPoint" />
          </mxGeometry>
        </mxCell>
        <mxCell id="QiPL9GrgfTsRM4h--cfD-8" value="" style="endArrow=none;html=1;rounded=0;entryX=0.5;entryY=1;entryDx=0;entryDy=0;exitX=0.5;exitY=0;exitDx=0;exitDy=0;" parent="1" source="QG_l4MKezRPwtD6jx4Xo-1" target="QG_l4MKezRPwtD6jx4Xo-63" edge="1">
          <mxGeometry width="50" height="50" relative="1" as="geometry">
            <mxPoint x="569" y="350" as="sourcePoint" />
            <mxPoint x="639" y="260" as="targetPoint" />
            <Array as="points">
              <mxPoint x="510" y="280" />
            </Array>
          </mxGeometry>
        </mxCell>
        <mxCell id="QiPL9GrgfTsRM4h--cfD-9" value="" style="endArrow=none;html=1;rounded=0;entryX=0.5;entryY=1;entryDx=0;entryDy=0;exitX=0.5;exitY=0;exitDx=0;exitDy=0;" parent="1" source="QG_l4MKezRPwtD6jx4Xo-63" target="QiPL9GrgfTsRM4h--cfD-5" edge="1">
          <mxGeometry width="50" height="50" relative="1" as="geometry">
            <mxPoint x="639" y="220" as="sourcePoint" />
            <mxPoint x="639" y="195" as="targetPoint" />
          </mxGeometry>
        </mxCell>
        <mxCell id="QiPL9GrgfTsRM4h--cfD-10" value="recepientId" style="ellipse;whiteSpace=wrap;html=1;" parent="1" vertex="1">
          <mxGeometry x="350" y="135" width="90" height="30" as="geometry" />
        </mxCell>
        <mxCell id="QiPL9GrgfTsRM4h--cfD-11" value="content" style="ellipse;whiteSpace=wrap;html=1;" parent="1" vertex="1">
          <mxGeometry x="350" y="165" width="90" height="30" as="geometry" />
        </mxCell>
        <mxCell id="QiPL9GrgfTsRM4h--cfD-12" value="userId" style="ellipse;whiteSpace=wrap;html=1;" parent="1" vertex="1">
          <mxGeometry x="350" y="105" width="90" height="30" as="geometry" />
        </mxCell>
        <mxCell id="QiPL9GrgfTsRM4h--cfD-13" value="date" style="ellipse;whiteSpace=wrap;html=1;" parent="1" vertex="1">
          <mxGeometry x="350" y="195" width="90" height="30" as="geometry" />
        </mxCell>
        <mxCell id="QiPL9GrgfTsRM4h--cfD-14" value="" style="endArrow=none;html=1;rounded=0;entryX=0;entryY=0.5;entryDx=0;entryDy=0;exitX=1;exitY=0.5;exitDx=0;exitDy=0;" parent="1" source="QiPL9GrgfTsRM4h--cfD-12" target="QiPL9GrgfTsRM4h--cfD-5" edge="1">
          <mxGeometry width="50" height="50" relative="1" as="geometry">
            <mxPoint x="504" y="210" as="sourcePoint" />
            <mxPoint x="504" y="190" as="targetPoint" />
          </mxGeometry>
        </mxCell>
        <mxCell id="QiPL9GrgfTsRM4h--cfD-15" value="" style="endArrow=none;html=1;rounded=0;entryX=0;entryY=0.5;entryDx=0;entryDy=0;exitX=1;exitY=0.5;exitDx=0;exitDy=0;" parent="1" source="QiPL9GrgfTsRM4h--cfD-10" target="QiPL9GrgfTsRM4h--cfD-5" edge="1">
          <mxGeometry width="50" height="50" relative="1" as="geometry">
            <mxPoint x="434" y="130" as="sourcePoint" />
            <mxPoint x="459" y="175" as="targetPoint" />
          </mxGeometry>
        </mxCell>
        <mxCell id="QiPL9GrgfTsRM4h--cfD-16" value="" style="endArrow=none;html=1;rounded=0;entryX=0;entryY=0.5;entryDx=0;entryDy=0;exitX=1;exitY=0.5;exitDx=0;exitDy=0;" parent="1" source="QiPL9GrgfTsRM4h--cfD-11" target="QiPL9GrgfTsRM4h--cfD-5" edge="1">
          <mxGeometry width="50" height="50" relative="1" as="geometry">
            <mxPoint x="444" y="140" as="sourcePoint" />
            <mxPoint x="469" y="185" as="targetPoint" />
          </mxGeometry>
        </mxCell>
        <mxCell id="QiPL9GrgfTsRM4h--cfD-17" value="" style="endArrow=none;html=1;rounded=0;entryX=1;entryY=0.5;entryDx=0;entryDy=0;exitX=0;exitY=0.5;exitDx=0;exitDy=0;" parent="1" source="QiPL9GrgfTsRM4h--cfD-5" target="QiPL9GrgfTsRM4h--cfD-13" edge="1">
          <mxGeometry width="50" height="50" relative="1" as="geometry">
            <mxPoint x="454" y="150" as="sourcePoint" />
            <mxPoint x="479" y="195" as="targetPoint" />
          </mxGeometry>
        </mxCell>
        <mxCell id="QiPL9GrgfTsRM4h--cfD-18" value="Creates" style="rhombus;whiteSpace=wrap;html=1;" parent="1" vertex="1">
          <mxGeometry x="374" y="325" width="60" height="60" as="geometry" />
        </mxCell>
        <mxCell id="QiPL9GrgfTsRM4h--cfD-19" value="" style="endArrow=none;html=1;rounded=0;entryX=0;entryY=0.5;entryDx=0;entryDy=0;exitX=1;exitY=0.5;exitDx=0;exitDy=0;labelPosition=right;verticalLabelPosition=middle;align=left;verticalAlign=middle;labelBorderColor=none;" parent="1" source="QiPL9GrgfTsRM4h--cfD-57" target="QG_l4MKezRPwtD6jx4Xo-1" edge="1">
          <mxGeometry width="50" height="50" relative="1" as="geometry">
            <mxPoint x="463" y="323" as="sourcePoint" />
            <mxPoint x="539" y="365" as="targetPoint" />
            <Array as="points" />
          </mxGeometry>
        </mxCell>
        <mxCell id="QiPL9GrgfTsRM4h--cfD-22" value="" style="endArrow=none;html=1;rounded=0;exitX=0;exitY=0.5;exitDx=0;exitDy=0;entryX=1;entryY=0.5;entryDx=0;entryDy=0;" parent="1" source="QiPL9GrgfTsRM4h--cfD-58" target="QiPL9GrgfTsRM4h--cfD-4" edge="1">
          <mxGeometry width="50" height="50" relative="1" as="geometry">
            <mxPoint x="373" y="323" as="sourcePoint" />
            <mxPoint x="298" y="323" as="targetPoint" />
          </mxGeometry>
        </mxCell>
        <mxCell id="QiPL9GrgfTsRM4h--cfD-23" value="" style="endArrow=none;html=1;rounded=0;exitX=0;exitY=0.5;exitDx=0;exitDy=0;entryX=0;entryY=0.5;entryDx=0;entryDy=0;" parent="1" edge="1">
          <mxGeometry width="50" height="50" relative="1" as="geometry">
            <mxPoint x="278" y="645" as="sourcePoint" />
            <mxPoint x="167" y="245" as="targetPoint" />
            <Array as="points">
              <mxPoint x="63" y="645" />
              <mxPoint x="64" y="245" />
            </Array>
          </mxGeometry>
        </mxCell>
        <mxCell id="QiPL9GrgfTsRM4h--cfD-24" value="" style="endArrow=none;html=1;rounded=0;exitX=0.5;exitY=0;exitDx=0;exitDy=0;entryX=0.5;entryY=1;entryDx=0;entryDy=0;" parent="1" source="QiPL9GrgfTsRM4h--cfD-41" target="QiPL9GrgfTsRM4h--cfD-4" edge="1">
          <mxGeometry width="50" height="50" relative="1" as="geometry">
            <mxPoint x="389" y="400" as="sourcePoint" />
            <mxPoint x="298" y="400" as="targetPoint" />
            <Array as="points" />
          </mxGeometry>
        </mxCell>
        <mxCell id="QiPL9GrgfTsRM4h--cfD-25" value="" style="endArrow=none;html=1;rounded=0;exitX=0;exitY=0.5;exitDx=0;exitDy=0;entryX=1;entryY=0.5;entryDx=0;entryDy=0;" parent="1" target="QiPL9GrgfTsRM4h--cfD-89" edge="1">
          <mxGeometry width="50" height="50" relative="1" as="geometry">
            <mxPoint x="529" y="605" as="sourcePoint" />
            <mxPoint x="298" y="480" as="targetPoint" />
            <Array as="points">
              <mxPoint x="439" y="565" />
            </Array>
          </mxGeometry>
        </mxCell>
        <mxCell id="QiPL9GrgfTsRM4h--cfD-26" value="" style="endArrow=none;html=1;rounded=0;exitX=0;exitY=0.5;exitDx=0;exitDy=0;entryX=1;entryY=0.5;entryDx=0;entryDy=0;" parent="1" target="QiPL9GrgfTsRM4h--cfD-3" edge="1">
          <mxGeometry width="50" height="50" relative="1" as="geometry">
            <mxPoint x="529" y="605" as="sourcePoint" />
            <mxPoint x="308" y="490" as="targetPoint" />
            <Array as="points">
              <mxPoint x="439" y="645" />
            </Array>
          </mxGeometry>
        </mxCell>
        <mxCell id="QiPL9GrgfTsRM4h--cfD-27" value="blogId" style="ellipse;whiteSpace=wrap;html=1;" parent="1" vertex="1">
          <mxGeometry x="74" y="280" width="90" height="30" as="geometry" />
        </mxCell>
        <mxCell id="QiPL9GrgfTsRM4h--cfD-28" value="title" style="ellipse;whiteSpace=wrap;html=1;" parent="1" vertex="1">
          <mxGeometry x="74" y="340" width="90" height="30" as="geometry" />
        </mxCell>
        <mxCell id="QiPL9GrgfTsRM4h--cfD-30" value="" style="endArrow=none;html=1;rounded=0;exitX=1;exitY=0.5;exitDx=0;exitDy=0;entryX=0;entryY=0.5;entryDx=0;entryDy=0;" parent="1" source="QiPL9GrgfTsRM4h--cfD-27" target="QiPL9GrgfTsRM4h--cfD-4" edge="1">
          <mxGeometry width="50" height="50" relative="1" as="geometry">
            <mxPoint x="213" y="290" as="sourcePoint" />
            <mxPoint x="179" y="390" as="targetPoint" />
          </mxGeometry>
        </mxCell>
        <mxCell id="QiPL9GrgfTsRM4h--cfD-31" value="" style="endArrow=none;html=1;rounded=0;exitX=1;exitY=0.5;exitDx=0;exitDy=0;entryX=0;entryY=0.5;entryDx=0;entryDy=0;" parent="1" source="QiPL9GrgfTsRM4h--cfD-28" target="QiPL9GrgfTsRM4h--cfD-4" edge="1">
          <mxGeometry width="50" height="50" relative="1" as="geometry">
            <mxPoint x="179" y="380" as="sourcePoint" />
            <mxPoint x="198" y="395" as="targetPoint" />
          </mxGeometry>
        </mxCell>
        <mxCell id="QiPL9GrgfTsRM4h--cfD-32" value="desciption" style="ellipse;whiteSpace=wrap;html=1;" parent="1" vertex="1">
          <mxGeometry x="74" y="370" width="90" height="30" as="geometry" />
        </mxCell>
        <mxCell id="QiPL9GrgfTsRM4h--cfD-33" value="" style="endArrow=none;html=1;rounded=0;exitX=1;exitY=0.5;exitDx=0;exitDy=0;entryX=0;entryY=0.5;entryDx=0;entryDy=0;" parent="1" source="QiPL9GrgfTsRM4h--cfD-32" target="QiPL9GrgfTsRM4h--cfD-4" edge="1">
          <mxGeometry width="50" height="50" relative="1" as="geometry">
            <mxPoint x="179" y="395" as="sourcePoint" />
            <mxPoint x="198" y="395" as="targetPoint" />
          </mxGeometry>
        </mxCell>
        <mxCell id="QiPL9GrgfTsRM4h--cfD-34" value="1" style="text;html=1;align=center;verticalAlign=middle;whiteSpace=wrap;rounded=0;" parent="1" vertex="1">
          <mxGeometry x="515" y="270" width="15" height="10" as="geometry" />
        </mxCell>
        <mxCell id="QiPL9GrgfTsRM4h--cfD-35" value="1" style="text;html=1;align=center;verticalAlign=middle;whiteSpace=wrap;rounded=0;" parent="1" vertex="1">
          <mxGeometry x="589" y="270" width="30" height="10" as="geometry" />
        </mxCell>
        <mxCell id="QiPL9GrgfTsRM4h--cfD-39" value="1" style="text;html=1;align=center;verticalAlign=middle;whiteSpace=wrap;rounded=0;" parent="1" vertex="1">
          <mxGeometry x="491.5" y="435" width="30" height="10" as="geometry" />
        </mxCell>
        <mxCell id="QiPL9GrgfTsRM4h--cfD-40" value="M" style="text;html=1;align=center;verticalAlign=middle;whiteSpace=wrap;rounded=0;" parent="1" vertex="1">
          <mxGeometry x="594" y="435" width="30" height="10" as="geometry" />
        </mxCell>
        <mxCell id="QiPL9GrgfTsRM4h--cfD-48" value="M" style="text;html=1;align=center;verticalAlign=middle;whiteSpace=wrap;rounded=0;" parent="1" vertex="1">
          <mxGeometry x="505" y="560" width="10" height="10" as="geometry" />
        </mxCell>
        <mxCell id="QiPL9GrgfTsRM4h--cfD-51" value="M" style="text;html=1;align=center;verticalAlign=middle;whiteSpace=wrap;rounded=0;" parent="1" vertex="1">
          <mxGeometry x="604" y="560" width="10" height="10" as="geometry" />
        </mxCell>
        <mxCell id="QiPL9GrgfTsRM4h--cfD-52" value="M" style="text;html=1;align=center;verticalAlign=middle;whiteSpace=wrap;rounded=0;" parent="1" vertex="1">
          <mxGeometry x="429" y="570" width="10" height="10" as="geometry" />
        </mxCell>
        <mxCell id="QiPL9GrgfTsRM4h--cfD-53" value="1" style="text;html=1;align=center;verticalAlign=middle;whiteSpace=wrap;rounded=0;" parent="1" vertex="1">
          <mxGeometry x="429" y="630" width="10" height="10" as="geometry" />
        </mxCell>
        <mxCell id="QiPL9GrgfTsRM4h--cfD-59" value="M" style="text;html=1;align=center;verticalAlign=middle;whiteSpace=wrap;rounded=0;" parent="1" vertex="1">
          <mxGeometry x="258" y="230" width="30" height="10" as="geometry" />
        </mxCell>
        <mxCell id="QiPL9GrgfTsRM4h--cfD-60" value="M" style="text;html=1;align=center;verticalAlign=middle;whiteSpace=wrap;rounded=0;" parent="1" vertex="1">
          <mxGeometry x="510" y="185" width="30" height="10" as="geometry" />
        </mxCell>
        <mxCell id="QiPL9GrgfTsRM4h--cfD-61" value="M" style="text;html=1;align=center;verticalAlign=middle;whiteSpace=wrap;rounded=0;" parent="1" vertex="1">
          <mxGeometry x="614" y="190" width="30" height="10" as="geometry" />
        </mxCell>
        <mxCell id="QiPL9GrgfTsRM4h--cfD-67" value="" style="endArrow=none;html=1;rounded=0;entryX=0;entryY=0.5;entryDx=0;entryDy=0;exitX=1;exitY=0.5;exitDx=0;exitDy=0;labelPosition=right;verticalLabelPosition=middle;align=left;verticalAlign=middle;labelBorderColor=none;" parent="1" source="QiPL9GrgfTsRM4h--cfD-18" target="QiPL9GrgfTsRM4h--cfD-57" edge="1">
          <mxGeometry width="50" height="50" relative="1" as="geometry">
            <mxPoint x="434" y="355" as="sourcePoint" />
            <mxPoint x="529" y="355" as="targetPoint" />
            <Array as="points" />
          </mxGeometry>
        </mxCell>
        <mxCell id="QiPL9GrgfTsRM4h--cfD-57" value="1" style="text;html=1;align=center;verticalAlign=middle;whiteSpace=wrap;rounded=0;" parent="1" vertex="1">
          <mxGeometry x="466.5" y="350" width="15" height="10" as="geometry" />
        </mxCell>
        <mxCell id="QiPL9GrgfTsRM4h--cfD-72" value="" style="endArrow=none;html=1;rounded=0;exitX=0;exitY=0.5;exitDx=0;exitDy=0;entryX=1;entryY=0.5;entryDx=0;entryDy=0;" parent="1" source="QiPL9GrgfTsRM4h--cfD-18" target="QiPL9GrgfTsRM4h--cfD-58" edge="1">
          <mxGeometry width="50" height="50" relative="1" as="geometry">
            <mxPoint x="374" y="355" as="sourcePoint" />
            <mxPoint x="288" y="355" as="targetPoint" />
          </mxGeometry>
        </mxCell>
        <mxCell id="QiPL9GrgfTsRM4h--cfD-58" value="1" style="text;html=1;align=center;verticalAlign=middle;whiteSpace=wrap;rounded=0;" parent="1" vertex="1">
          <mxGeometry x="258" y="350" width="10" height="10" as="geometry" />
        </mxCell>
        <mxCell id="QiPL9GrgfTsRM4h--cfD-75" value="" style="endArrow=none;html=1;rounded=0;exitX=0;exitY=0.5;exitDx=0;exitDy=0;entryX=0.5;entryY=1;entryDx=0;entryDy=0;" parent="1" source="QG_l4MKezRPwtD6jx4Xo-80" target="QiPL9GrgfTsRM4h--cfD-41" edge="1">
          <mxGeometry width="50" height="50" relative="1" as="geometry">
            <mxPoint x="299" y="505" as="sourcePoint" />
            <mxPoint x="238" y="380" as="targetPoint" />
            <Array as="points">
              <mxPoint x="213" y="605" />
            </Array>
          </mxGeometry>
        </mxCell>
        <mxCell id="QiPL9GrgfTsRM4h--cfD-41" value="1" style="text;html=1;align=center;verticalAlign=middle;whiteSpace=wrap;rounded=0;" parent="1" vertex="1">
          <mxGeometry x="208" y="385" width="10" height="20" as="geometry" />
        </mxCell>
        <mxCell id="QiPL9GrgfTsRM4h--cfD-76" value="M" style="text;html=1;align=center;verticalAlign=middle;whiteSpace=wrap;rounded=0;" parent="1" vertex="1">
          <mxGeometry x="138" y="230" width="30" height="10" as="geometry" />
        </mxCell>
        <mxCell id="QiPL9GrgfTsRM4h--cfD-77" value="Tag" style="shape=ext;margin=3;double=1;whiteSpace=wrap;html=1;align=center;" parent="1" vertex="1">
          <mxGeometry x="289" y="415" width="60" height="30" as="geometry" />
        </mxCell>
        <mxCell id="QiPL9GrgfTsRM4h--cfD-78" value="Creates" style="rhombus;whiteSpace=wrap;html=1;" parent="1" vertex="1">
          <mxGeometry x="374" y="400" width="60" height="60" as="geometry" />
        </mxCell>
        <mxCell id="QiPL9GrgfTsRM4h--cfD-79" value="" style="endArrow=none;html=1;rounded=0;entryX=0;entryY=0.5;entryDx=0;entryDy=0;exitX=1;exitY=0.5;exitDx=0;exitDy=0;labelPosition=right;verticalLabelPosition=middle;align=left;verticalAlign=middle;labelBorderColor=none;" parent="1" source="QiPL9GrgfTsRM4h--cfD-78" target="QG_l4MKezRPwtD6jx4Xo-1" edge="1">
          <mxGeometry width="50" height="50" relative="1" as="geometry">
            <mxPoint x="444" y="365" as="sourcePoint" />
            <mxPoint x="509" y="365" as="targetPoint" />
            <Array as="points">
              <mxPoint x="479" y="430" />
            </Array>
          </mxGeometry>
        </mxCell>
        <mxCell id="QiPL9GrgfTsRM4h--cfD-80" value="" style="endArrow=none;html=1;rounded=0;entryX=0;entryY=0.5;entryDx=0;entryDy=0;exitX=1;exitY=0.5;exitDx=0;exitDy=0;labelPosition=right;verticalLabelPosition=middle;align=left;verticalAlign=middle;labelBorderColor=none;" parent="1" source="QiPL9GrgfTsRM4h--cfD-77" target="QiPL9GrgfTsRM4h--cfD-78" edge="1">
          <mxGeometry width="50" height="50" relative="1" as="geometry">
            <mxPoint x="444" y="430" as="sourcePoint" />
            <mxPoint x="539" y="365" as="targetPoint" />
            <Array as="points" />
          </mxGeometry>
        </mxCell>
        <mxCell id="QiPL9GrgfTsRM4h--cfD-82" value="1" style="text;html=1;align=center;verticalAlign=middle;whiteSpace=wrap;rounded=0;" parent="1" vertex="1">
          <mxGeometry x="469" y="415" width="10" height="10" as="geometry" />
        </mxCell>
        <mxCell id="QiPL9GrgfTsRM4h--cfD-83" value="M" style="text;html=1;align=center;verticalAlign=middle;whiteSpace=wrap;rounded=0;" parent="1" vertex="1">
          <mxGeometry x="349" y="415" width="20" height="10" as="geometry" />
        </mxCell>
        <mxCell id="QiPL9GrgfTsRM4h--cfD-84" value="tagId" style="ellipse;whiteSpace=wrap;html=1;" parent="1" vertex="1">
          <mxGeometry x="218" y="400" width="60" height="30" as="geometry" />
        </mxCell>
        <mxCell id="QiPL9GrgfTsRM4h--cfD-85" value="content" style="ellipse;whiteSpace=wrap;html=1;" parent="1" vertex="1">
          <mxGeometry x="219" y="430" width="60" height="30" as="geometry" />
        </mxCell>
        <mxCell id="QiPL9GrgfTsRM4h--cfD-86" value="1" style="text;html=1;align=center;verticalAlign=middle;whiteSpace=wrap;rounded=0;" parent="1" vertex="1">
          <mxGeometry x="469" y="290" width="10" height="10" as="geometry" />
        </mxCell>
        <mxCell id="QiPL9GrgfTsRM4h--cfD-87" value="" style="endArrow=none;html=1;rounded=0;exitX=1;exitY=0.5;exitDx=0;exitDy=0;entryX=0;entryY=0.5;entryDx=0;entryDy=0;" parent="1" source="QiPL9GrgfTsRM4h--cfD-84" target="QiPL9GrgfTsRM4h--cfD-77" edge="1">
          <mxGeometry width="50" height="50" relative="1" as="geometry">
            <mxPoint x="174" y="395" as="sourcePoint" />
            <mxPoint x="193" y="365" as="targetPoint" />
          </mxGeometry>
        </mxCell>
        <mxCell id="QiPL9GrgfTsRM4h--cfD-88" value="" style="endArrow=none;html=1;rounded=0;entryX=1;entryY=0.5;entryDx=0;entryDy=0;exitX=0;exitY=0.5;exitDx=0;exitDy=0;" parent="1" source="QiPL9GrgfTsRM4h--cfD-77" target="QiPL9GrgfTsRM4h--cfD-85" edge="1">
          <mxGeometry width="50" height="50" relative="1" as="geometry">
            <mxPoint x="299" y="460" as="sourcePoint" />
            <mxPoint x="299" y="440" as="targetPoint" />
          </mxGeometry>
        </mxCell>
        <mxCell id="QiPL9GrgfTsRM4h--cfD-89" value="Contains" style="shape=associativeEntity;whiteSpace=wrap;html=1;align=center;" parent="1" vertex="1">
          <mxGeometry x="274" y="550" width="90" height="30" as="geometry" />
        </mxCell>
        <mxCell id="QiPL9GrgfTsRM4h--cfD-90" value="" style="endArrow=none;html=1;rounded=0;exitX=0.5;exitY=0;exitDx=0;exitDy=0;entryX=0.5;entryY=1;entryDx=0;entryDy=0;" parent="1" source="QiPL9GrgfTsRM4h--cfD-89" target="QiPL9GrgfTsRM4h--cfD-77" edge="1">
          <mxGeometry relative="1" as="geometry">
            <mxPoint x="359" y="510" as="sourcePoint" />
            <mxPoint x="519" y="510" as="targetPoint" />
          </mxGeometry>
        </mxCell>
        <mxCell id="QiPL9GrgfTsRM4h--cfD-92" value="M" style="text;html=1;align=center;verticalAlign=middle;whiteSpace=wrap;rounded=0;" parent="1" vertex="1">
          <mxGeometry x="324" y="450" width="10" height="10" as="geometry" />
        </mxCell>
        <mxCell id="QiPL9GrgfTsRM4h--cfD-93" value="" style="endArrow=none;html=1;rounded=0;exitX=1;exitY=0.5;exitDx=0;exitDy=0;entryX=0;entryY=0.5;entryDx=0;entryDy=0;" parent="1" source="QiPL9GrgfTsRM4h--cfD-94" edge="1">
          <mxGeometry relative="1" as="geometry">
            <mxPoint x="329" y="560" as="sourcePoint" />
            <mxPoint x="529" y="605" as="targetPoint" />
          </mxGeometry>
        </mxCell>
        <mxCell id="QiPL9GrgfTsRM4h--cfD-95" value="" style="endArrow=none;html=1;rounded=0;exitX=1;exitY=0.5;exitDx=0;exitDy=0;entryX=0;entryY=0.5;entryDx=0;entryDy=0;" parent="1" source="QG_l4MKezRPwtD6jx4Xo-80" target="QiPL9GrgfTsRM4h--cfD-94" edge="1">
          <mxGeometry relative="1" as="geometry">
            <mxPoint x="364" y="605" as="sourcePoint" />
            <mxPoint x="529" y="605" as="targetPoint" />
          </mxGeometry>
        </mxCell>
        <mxCell id="QiPL9GrgfTsRM4h--cfD-94" value="M" style="text;html=1;align=center;verticalAlign=middle;whiteSpace=wrap;rounded=0;" parent="1" vertex="1">
          <mxGeometry x="424" y="600" width="20" height="10" as="geometry" />
        </mxCell>
        <mxCell id="QiPL9GrgfTsRM4h--cfD-97" value="" style="endArrow=none;html=1;rounded=0;exitX=0.5;exitY=1;exitDx=0;exitDy=0;entryX=0.5;entryY=0;entryDx=0;entryDy=0;" parent="1" source="QG_l4MKezRPwtD6jx4Xo-14" target="QiPL9GrgfTsRM4h--cfD-50" edge="1">
          <mxGeometry width="50" height="50" relative="1" as="geometry">
            <mxPoint x="559" y="550" as="sourcePoint" />
            <mxPoint x="559" y="590" as="targetPoint" />
          </mxGeometry>
        </mxCell>
        <mxCell id="QiPL9GrgfTsRM4h--cfD-50" value="M" style="text;html=1;align=center;verticalAlign=middle;whiteSpace=wrap;rounded=0;" parent="1" vertex="1">
          <mxGeometry x="554" y="555" width="10" height="20" as="geometry" />
        </mxCell>
        <mxCell id="QiPL9GrgfTsRM4h--cfD-98" value="" style="endArrow=none;html=1;rounded=0;exitX=0.5;exitY=0;exitDx=0;exitDy=0;" parent="1" source="QG_l4MKezRPwtD6jx4Xo-14" target="QiPL9GrgfTsRM4h--cfD-36" edge="1">
          <mxGeometry width="50" height="50" relative="1" as="geometry">
            <mxPoint x="559" y="490" as="sourcePoint" />
            <mxPoint x="559" y="370" as="targetPoint" />
          </mxGeometry>
        </mxCell>
        <mxCell id="QiPL9GrgfTsRM4h--cfD-36" value="1" style="text;html=1;align=center;verticalAlign=middle;whiteSpace=wrap;rounded=0;" parent="1" vertex="1">
          <mxGeometry x="544" y="430" width="30" height="15" as="geometry" />
        </mxCell>
        <mxCell id="UEhve0noTUzru5Fg194q-1" value="passwordHash" style="ellipse;whiteSpace=wrap;html=1;" parent="1" vertex="1">
          <mxGeometry x="644" y="370" width="90" height="30" as="geometry" />
        </mxCell>
        <mxCell id="UEhve0noTUzru5Fg194q-2" value="joinDate" style="ellipse;whiteSpace=wrap;html=1;" parent="1" vertex="1">
          <mxGeometry x="644" y="400" width="90" height="30" as="geometry" />
        </mxCell>
        <mxCell id="UEhve0noTUzru5Fg194q-3" value="" style="endArrow=none;html=1;rounded=0;exitX=1;exitY=0.5;exitDx=0;exitDy=0;entryX=0;entryY=0.5;entryDx=0;entryDy=0;" parent="1" source="QG_l4MKezRPwtD6jx4Xo-1" target="UEhve0noTUzru5Fg194q-1" edge="1">
          <mxGeometry width="50" height="50" relative="1" as="geometry">
            <mxPoint x="599" y="365" as="sourcePoint" />
            <mxPoint x="654" y="365" as="targetPoint" />
          </mxGeometry>
        </mxCell>
        <mxCell id="UEhve0noTUzru5Fg194q-4" value="" style="endArrow=none;html=1;rounded=0;exitX=1;exitY=0.5;exitDx=0;exitDy=0;entryX=0;entryY=0.5;entryDx=0;entryDy=0;" parent="1" source="QG_l4MKezRPwtD6jx4Xo-1" target="UEhve0noTUzru5Fg194q-2" edge="1">
          <mxGeometry width="50" height="50" relative="1" as="geometry">
            <mxPoint x="609" y="375" as="sourcePoint" />
            <mxPoint x="664" y="375" as="targetPoint" />
          </mxGeometry>
        </mxCell>
        <mxCell id="cjoXK840-xkflew0hTR0-1" value="bloggerId" style="ellipse;whiteSpace=wrap;html=1;" parent="1" vertex="1">
          <mxGeometry x="74" y="310" width="90" height="30" as="geometry" />
        </mxCell>
        <mxCell id="cjoXK840-xkflew0hTR0-2" value="creationDate" style="ellipse;whiteSpace=wrap;html=1;" parent="1" vertex="1">
          <mxGeometry x="74" y="400" width="90" height="30" as="geometry" />
        </mxCell>
        <mxCell id="cjoXK840-xkflew0hTR0-3" value="" style="endArrow=none;html=1;rounded=0;exitX=1;exitY=0.5;exitDx=0;exitDy=0;entryX=0;entryY=0.5;entryDx=0;entryDy=0;" parent="1" source="cjoXK840-xkflew0hTR0-2" target="QiPL9GrgfTsRM4h--cfD-4" edge="1">
          <mxGeometry width="50" height="50" relative="1" as="geometry">
            <mxPoint x="174" y="395" as="sourcePoint" />
            <mxPoint x="193" y="365" as="targetPoint" />
          </mxGeometry>
        </mxCell>
        <mxCell id="cjoXK840-xkflew0hTR0-4" value="" style="endArrow=none;html=1;rounded=0;exitX=1;exitY=0.5;exitDx=0;exitDy=0;entryX=0;entryY=0.5;entryDx=0;entryDy=0;" parent="1" source="cjoXK840-xkflew0hTR0-1" target="QiPL9GrgfTsRM4h--cfD-4" edge="1">
          <mxGeometry width="50" height="50" relative="1" as="geometry">
            <mxPoint x="184" y="405" as="sourcePoint" />
            <mxPoint x="203" y="375" as="targetPoint" />
          </mxGeometry>
        </mxCell>
        <mxCell id="7Ne_UMMU2dRyCG_zB8st-1" value="Post" style="shape=ext;margin=3;double=1;whiteSpace=wrap;html=1;align=center;" vertex="1" parent="1">
          <mxGeometry x="530" y="590" width="60" height="30" as="geometry" />
        </mxCell>
      </root>
    </mxGraphModel>
  </diagram>
</mxfile>
